PathFileType	4	(X/Y/Z)	D:\TRACE\spotREDO_2-26-24\spot_justBody_Motion_1_3-platform.trc
DataRate	CameraRate	NumFrames	NumMarkers	Units	OrigDataRate	OrigDataStartFrame	OrigNumFrames
100.00	100.00	      67	5	mm	100.00	4376	      7000
Frame#	Time	Left_Front			Right_Front			Left_Aft			Right_Aft			Post			
		X1	Y1	Z1	X2	Y2	Z2	X3	Y3	Z3	X4	Y4	Z4	X5	Y5	Z5	

4376	43.750	-669.94489	-6.86079	-576.34174	745.03009	2.60383	-491.75226	-741.42749	8.11657	642.61011	829.01660	15.64365	645.85510	39.26110	618.37903	-985.85962	
4377	43.760	-670.70294	-6.60450	-576.30267	743.95721	2.79159	-491.77090	-742.06415	7.91337	642.69543	828.07172	15.15782	646.03906	38.56489	618.82800	-985.42297	
4378	43.770	-671.71460	-6.07471	-576.17920	743.09393	2.97808	-491.59439	-742.86682	7.55125	642.94885	827.36285	14.89735	646.02167	37.59437	619.53815	-984.87225	
4379	43.780	-672.55267	-5.75539	-576.18201	742.45319	3.20286	-491.52582	-743.82086	7.09629	642.89264	826.60199	14.52663	646.10577	36.83822	620.10114	-984.62201	
4380	43.790	-673.21655	-5.43347	-575.95630	741.27026	3.59046	-491.50427	-744.52527	6.59273	643.06006	825.61865	14.12798	646.28607	36.05413	620.61462	-984.29871	
4381	43.800	-674.07953	-5.33271	-575.96979	740.46808	3.86196	-491.40057	-745.14160	6.68971	643.43585	824.59082	13.74433	646.45074	35.04060	621.13226	-984.05737	
4382	43.810	-675.03381	-5.05674	-575.90088	739.78424	4.41323	-491.53030	-746.28339	5.73996	643.13470	824.04010	13.47939	646.47528	34.36067	621.69690	-983.48303	
4383	43.820	-675.82831	-4.46602	-575.77203	738.86194	4.58186	-491.21115	-747.13464	5.66656	643.40411	823.15521	13.18500	646.68201	33.68261	622.10815	-983.17133	
4384	43.830	-676.58557	-4.27352	-575.73132	738.07056	4.86043	-491.18015	-748.10004	5.28740	643.19061	822.28101	12.69996	646.67645	33.14515	622.72363	-982.63776	
4385	43.840	-677.50580	-3.90527	-575.57623	737.21722	5.12764	-491.22211	-748.77490	4.98335	643.47498	821.51953	12.38632	646.81940	32.13734	623.43610	-982.30627	
4386	43.850	-678.17255	-3.58294	-575.47028	736.28339	5.48599	-490.98059	-749.53381	4.51892	643.48102	820.47705	11.89427	647.01587	31.16427	623.96777	-981.72998	
4387	43.860	-679.21735	-3.17985	-575.39087	735.62683	5.64717	-490.97058	-750.46777	4.08067	643.63776	819.84576	11.55672	647.08984	30.22585	624.61749	-981.29761	
4388	43.870	-680.39313	-2.57254	-575.32288	734.50922	6.02790	-491.04401	-751.25800	3.68342	643.78271	819.03540	11.30266	647.10730	29.28472	625.22406	-980.88647	
4389	43.880	-681.10828	-2.43173	-575.23035	733.56744	6.35718	-490.78708	-752.29333	3.31126	643.95001	817.85211	10.77370	647.11975	28.08631	625.84888	-980.20599	
4390	43.890	-681.81750	-2.11791	-575.11676	732.97144	6.51262	-490.45291	-753.25818	3.10512	644.05859	816.91620	10.50631	647.17712	27.51548	626.44592	-979.86090	
4391	43.900	-682.86224	-1.80775	-574.97144	732.09558	6.93253	-490.42517	-754.20813	2.65223	643.94360	816.25922	10.06894	647.23889	26.55947	627.00909	-979.20227	
4392	43.910	-683.73682	-1.32823	-575.04199	730.97443	7.19880	-490.40195	-754.77747	2.14096	644.08893	815.27094	9.57738	647.37207	25.45749	627.54639	-978.64343	
4393	43.920	-684.73553	-0.87558	-574.86914	730.23254	7.77180	-490.49280	-755.87628	1.79638	644.13104	814.42432	9.28156	647.42822	24.64896	628.07288	-978.31055	
4394	43.930	-685.72754	-0.62884	-574.74554	729.27881	7.97952	-490.31589	-756.73352	1.59078	644.25073	813.69824	8.91103	647.52252	23.99193	628.75208	-977.54016	
4395	43.940	-686.33923	-0.43087	-574.62604	728.04840	8.34567	-490.24561	-757.56506	1.01404	644.49469	812.33337	8.43374	647.74542	23.13702	629.35907	-977.25507	
4396	43.950	-687.48718	0.30065	-574.51819	727.21136	8.75601	-490.29150	-758.60602	0.72776	644.63580	811.90625	8.05394	647.77698	22.12480	629.98663	-976.99475	
4397	43.960	-688.43060	0.63406	-574.46484	726.38470	8.92922	-489.93503	-759.61517	0.40425	644.72675	810.67957	7.71662	647.92310	21.19175	630.69495	-976.58868	
4398	43.970	-689.16931	1.00122	-574.30536	725.28491	9.36486	-490.12622	-760.35870	0.01289	644.74738	809.80353	7.49582	648.07898	20.12378	631.33484	-976.29578	
4399	43.980	-690.25079	1.15870	-574.34619	724.27850	9.48726	-489.85373	-761.32495	-0.17693	644.80548	808.77893	6.98763	648.13550	19.25071	631.68640	-975.75482	
4400	43.990	-691.10577	1.36721	-574.20129	723.49530	9.56348	-489.68454	-762.28070	-0.35605	644.81757	807.67505	6.61065	648.23169	18.23230	632.42322	-975.37787	
4401	44.000	-692.11621	1.73333	-574.22687	722.81738	9.86742	-489.55905	-763.28564	-1.38299	645.06732	807.03992	6.17861	648.19006	17.23364	633.04297	-974.57983	
4402	44.010	-693.13483	2.34272	-573.96844	721.45728	10.31863	-489.45947	-764.31433	-1.65220	645.12543	806.03320	5.93449	648.46100	16.47053	633.57581	-974.25183	
4403	44.020	-694.16821	2.66999	-573.72931	720.66766	10.51984	-489.37665	-765.18176	-1.98800	645.36053	804.76593	5.21084	648.25732	16.16178	634.22290	-973.34308	
4404	44.030	-694.98016	2.96216	-573.69281	719.90540	10.77938	-489.19498	-766.25024	-2.35473	645.30115	803.99756	4.80860	648.19812	14.12903	634.82916	-972.86633	
4405	44.040	-695.89722	3.45240	-573.75763	718.62726	11.23063	-489.15671	-767.12415	-2.52631	645.47668	803.25995	4.60100	648.56738	13.47866	635.36743	-972.27765	
4406	44.050	-697.07251	3.82841	-573.61969	717.77112	11.56048	-489.17883	-767.96753	-3.03751	645.41907	801.95184	4.21667	648.84515	12.44604	636.34259	-971.73608	
4407	44.060	-697.77618	4.16910	-573.40680	716.71863	11.99337	-489.02155	-768.96936	-3.06043	645.77753	801.12250	3.93358	648.75494	11.48102	636.97266	-971.42029	
4408	44.070	-698.95111	4.29097	-573.39825	715.76105	12.31301	-488.93134	-770.02124	-3.91211	645.74127	800.08557	3.63020	648.97357	9.68107	637.48535	-970.89142	
4409	44.080	-699.69397	4.66368	-573.34692	714.86041	12.86450	-489.03317	-770.91309	-4.28900	645.89099	799.15338	3.15487	648.99500	8.88944	638.08496	-970.63300	
4410	44.090	-700.90765	5.28828	-573.27039	713.84399	13.02422	-488.84235	-771.88342	-4.57207	646.00134	798.07129	2.69952	649.09583	8.15172	638.65924	-970.15717	
4411	44.100	-701.82574	5.55985	-573.21649	713.01874	13.17644	-488.54288	-772.78522	-4.97715	645.92078	797.04871	2.47595	649.30493	7.13676	639.22058	-969.73071	
4412	44.110	-702.59497	5.94028	-572.97296	711.94971	13.56280	-488.54016	-773.86938	-5.36389	646.00006	796.43738	2.17815	649.41217	6.64477	639.65417	-969.42419	
4413	44.120	-703.75409	6.11051	-572.86926	711.02271	13.86627	-488.37143	-774.93915	-5.55899	646.06317	795.19415	1.42782	649.32086	5.52715	640.44684	-968.79254	
4414	44.130	-704.28876	6.45291	-572.78320	710.19250	13.69262	-488.26300	-775.70526	-5.82286	646.38153	794.42548	1.11371	649.55066	4.71647	640.87518	-968.48633	
4415	44.140	-705.71906	7.09770	-572.76086	708.87018	14.09484	-488.21597	-776.88251	-6.34371	646.28748	793.54382	0.81997	649.52789	3.77713	641.46094	-968.14581	
4416	44.150	-706.54968	7.37942	-572.66229	708.18115	14.45576	-488.05212	-777.71564	-6.88304	646.47260	792.51495	0.41948	649.59607	2.84707	642.30939	-967.46704	
4417	44.160	-707.67975	7.67863	-572.52411	707.15247	14.76967	-487.95770	-778.59436	-7.06930	646.52502	791.42419	-0.06894	649.70404	1.93207	642.92499	-966.89478	
4418	44.170	-708.44757	8.17241	-572.36969	706.03705	15.22701	-487.97171	-779.74066	-7.50930	646.64539	790.62817	-0.34153	649.81360	0.80508	643.62830	-966.24341	
4419	44.180	-709.64258	8.57704	-572.41034	705.39459	15.49258	-487.65817	-780.57361	-7.96611	646.65808	789.39349	-0.96765	649.90540	-0.18036	644.25500	-965.78906	
4420	44.190	-710.63153	8.98935	-572.25909	704.08514	15.88716	-487.79745	-781.55347	-8.58110	646.84863	788.51996	-1.26841	650.09698	-1.27705	644.71100	-965.15167	
4421	44.200	-711.22241	9.20336	-572.07654	703.20367	16.17731	-487.62778	-782.64154	-8.75293	646.86285	787.71484	-1.61028	650.18060	-2.05658	645.21307	-964.82831	
4422	44.210	-712.30896	9.52841	-572.02747	702.35382	16.44369	-487.46255	-783.57330	-9.06393	646.98755	786.85059	-1.96115	650.22900	-2.96882	646.01062	-963.78387	
4423	44.220	-713.30603	10.06721	-571.88409	701.42969	16.93657	-487.52670	-784.52155	-9.24882	647.04388	785.63837	-2.41897	650.27350	-3.76877	646.45795	-963.46948	
4424	44.230	-714.44263	10.35936	-571.78619	700.45673	17.16757	-487.32767	-785.51642	-9.98596	647.04620	785.03125	-2.68645	650.59918	-4.89588	646.84863	-963.14697	
4425	44.240	-715.19958	10.61253	-571.83112	699.32214	17.52223	-487.32935	-786.23309	-10.34795	647.10059	783.78564	-3.06659	650.64606	-5.94513	647.58087	-962.66730	
4426	44.250	-716.06830	10.85203	-571.74573	698.65686	17.76747	-487.20972	-787.30066	-10.66404	647.26886	782.85394	-3.62745	650.57471	-6.86571	648.30475	-962.39771	
4427	44.260	-717.02802	11.32124	-571.75024	697.74591	17.97086	-486.87708	-788.19537	-10.96510	647.45813	781.81299	-4.06549	650.70203	-7.74932	648.81335	-962.00769	
4428	44.270	-718.06305	11.85958	-571.46539	696.73279	18.32170	-486.90939	-789.25861	-11.26275	647.54694	780.92761	-4.35098	650.71667	-8.58015	649.50684	-961.66138	
4429	44.280	-718.85126	12.15557	-571.17944	695.90613	18.66458	-486.75610	-790.17468	-11.52479	647.51550	780.36249	-4.63586	650.75891	-9.49475	650.25763	-961.21490	
4430	44.290	-719.93274	12.49058	-571.00903	694.90710	18.75235	-486.55399	-791.05890	-11.98969	647.63440	779.19159	-5.02296	650.90283	-10.54480	650.74023	-960.67969	
4431	44.300	-720.70728	12.56160	-571.14752	693.81171	19.12811	-486.73584	-791.80237	-12.54938	647.63934	778.44019	-5.47047	650.85999	-11.18202	651.13062	-960.28009	
4432	44.310	-721.54956	13.15181	-570.99420	692.97931	19.36031	-486.49753	-792.84589	-13.02030	647.62244	777.57239	-5.83371	651.00970	-11.95870	651.78821	-959.33124	
4433	44.320	-722.57825	13.68759	-570.93878	692.07849	19.71461	-486.40292	-793.68384	-13.17875	647.95477	776.31586	-6.45558	651.15851	-13.08722	652.29498	-959.03406	
4434	44.330	-723.42596	13.91668	-570.85919	691.26288	20.13038	-486.49139	-794.54706	-13.36972	648.13721	775.78497	-6.65007	651.27362	-13.93046	652.77173	-958.37085	
4435	44.340	-724.29858	14.12946	-570.59515	690.13843	20.38741	-486.26843	-795.61786	-13.60684	648.26465	774.87512	-6.89927	651.36627	-15.00711	653.48676	-957.84296	
4436	44.350	-725.06940	14.38634	-570.58514	689.47583	20.54678	-486.06238	-796.29932	-14.28831	648.20374	773.81628	-7.20498	651.44489	-15.91653	654.12683	-957.24622	
4437	44.360	-726.14948	14.90007	-570.56879	688.77173	21.03627	-486.10275	-797.12579	-14.60928	648.15778	772.92999	-7.73592	651.48761	-16.77910	654.57745	-956.70313	
4438	44.370	-726.76678	15.31644	-570.49323	687.66443	21.34994	-485.84915	-798.00403	-14.98421	648.29065	772.18817	-7.97849	651.58960	-17.45747	655.11829	-956.28900	
4439	44.380	-727.53198	15.71423	-570.25873	687.07257	21.41156	-485.64157	-798.92615	-15.27912	648.34637	771.33575	-8.46220	651.84912	-18.27839	655.76569	-955.84473	
4440	44.390	-728.43323	15.84838	-570.14325	686.35535	21.88071	-485.70267	-799.61493	-15.70853	648.54437	770.85175	-8.55120	652.03113	-19.16165	656.30725	-955.49042	
4441	44.400	-729.46985	16.09987	-570.24902	685.35315	22.06276	-485.56186	-800.59729	-16.14203	648.62524	769.78571	-9.00912	651.84741	-19.83809	656.71472	-955.47455	
4442	44.410	-730.25427	16.49402	-570.03546	684.54645	22.24784	-485.48865	-801.31830	-16.45240	648.67981	768.79352	-9.58647	651.82556	-20.80557	657.23969	-954.99353	
